<svg xmlns="http://www.w3.org/2000/svg" viewBox="0 0 256 256">
  <defs>
    <linearGradient id="bg" x1="0" y1="0" x2="1" y2="1">
      <stop offset="0%" stop-color="#FFDA79"/>
      <stop offset="100%" stop-color="#FF8A3D"/>
    </linearGradient>
    <linearGradient id="fold" x1="0" y1="0" x2="1" y2="1">
      <stop offset="0%" stop-color="#3B82F6"/>
      <stop offset="100%" stop-color="#0F766E"/>
    </linearGradient>
  </defs>
  <rect x="20" y="20" width="216" height="216" rx="52" fill="url(#bg)"/>
  <path d="M74 84h56l16 16h36c11 0 20 9 20 20v44c0 11-9 20-20 20H74c-11 0-20-9-20-20v-60c0-11 9-20 20-20z" fill="#FFF8E7" opacity="0.96"/>
  <path d="M146 100l-16-16H74c-11 0-20 9-20 20v11h148v-15c0-11-9-20-20-20h-36z" fill="#F5E6C7"/>
  <path d="M138 129l26 26-26 26" fill="none" stroke="url(#fold)" stroke-width="18" stroke-linecap="round" stroke-linejoin="round"/>
  <path d="M92 155h64" fill="none" stroke="url(#fold)" stroke-width="18" stroke-linecap="round"/>
</svg>
